<svg xmlns="http://www.w3.org/2000/svg" class="block h-full w-auto" fill="currentColor" width="577" height="128" viewBox="0 0 577 128"><path d="M16 0C7.16344 0 0 7.16344 0 16V112C0 120.837 7.16344 128 16 128H241C249.837 128 257 120.837 257 112V16C257 7.16344 249.837 0 241 0H16ZM314.32 60.864C318.864 61.696 322.512 63.328 325.264 65.76C328.08 68.192 329.488 71.904 329.488 76.896C329.488 83.808 327.056 88.736 322.192 91.68C317.328 94.56 310.512 96 301.744 96H281.776V29.664H299.152C317.456 29.664 326.608 35.296 326.608 46.56C326.608 50.464 325.424 53.664 323.056 56.16C320.688 58.592 317.776 60.16 314.32 60.864ZM294.448 38.976V56.928H302.224C305.744 56.928 308.528 56.16 310.576 54.624C312.624 53.024 313.648 50.688 313.648 47.616C313.648 44.416 312.56 42.176 310.384 40.896C308.272 39.616 304.944 38.976 300.4 38.976H294.448ZM301.84 86.496C306.512 86.496 310.064 85.792 312.496 84.384C314.992 82.976 316.24 80.32 316.24 76.416C316.24 72.64 315.056 69.92 312.688 68.256C310.384 66.592 307.216 65.76 303.184 65.76H294.448V86.496H301.84ZM361.003 43.776C368.491 43.776 374.315 46.176 378.475 50.976C382.699 55.712 384.811 62.24 384.811 70.56C384.811 75.872 383.851 80.576 381.931 84.672C380.011 88.704 377.259 91.84 373.675 94.08C370.091 96.32 365.835 97.44 360.907 97.44C353.419 97.44 347.563 95.072 343.339 90.336C339.115 85.536 337.003 78.944 337.003 70.56C337.003 65.248 337.963 60.576 339.883 56.544C341.803 52.512 344.555 49.376 348.139 47.136C351.787 44.896 356.075 43.776 361.003 43.776ZM361.003 53.088C353.643 53.088 349.963 58.912 349.963 70.56C349.963 76.576 350.859 81.024 352.651 83.904C354.507 86.72 357.259 88.128 360.907 88.128C364.555 88.128 367.275 86.688 369.067 83.808C370.923 80.928 371.851 76.512 371.851 70.56C371.851 64.608 370.923 60.224 369.067 57.408C367.275 54.528 364.587 53.088 361.003 53.088ZM423.401 43.776C427.945 43.776 431.466 45.152 433.961 47.904C436.522 50.592 437.802 54.368 437.802 59.232V96H425.513V61.152C425.513 58.144 424.97 56.032 423.882 54.816C422.858 53.6 421.322 52.992 419.273 52.992C417.161 52.992 415.242 53.664 413.513 55.008C411.849 56.288 410.217 58.176 408.617 60.672V96H396.329V45.216H406.986L407.945 51.84C412.105 46.464 417.258 43.776 423.401 43.776ZM479.183 43.776C483.727 43.776 487.247 45.152 489.743 47.904C492.303 50.592 493.583 54.368 493.583 59.232V96H481.295V61.152C481.295 58.144 480.751 56.032 479.663 54.816C478.639 53.6 477.103 52.992 475.055 52.992C472.943 52.992 471.023 53.664 469.295 55.008C467.631 56.288 465.999 58.176 464.399 60.672V96H452.111V45.216H462.767L463.727 51.84C467.887 46.464 473.039 43.776 479.183 43.776ZM520.18 45.216V96H507.892V45.216H520.18ZM513.94 19.488C516.244 19.488 518.1 20.224 519.508 21.696C520.98 23.104 521.716 24.864 521.716 26.976C521.716 29.088 520.98 30.848 519.508 32.256C518.1 33.664 516.244 34.368 513.94 34.368C511.7 34.368 509.844 33.664 508.372 32.256C506.964 30.848 506.26 29.088 506.26 26.976C506.26 24.864 506.964 23.104 508.372 21.696C509.844 20.224 511.7 19.488 513.94 19.488ZM576.65 69.408C576.65 70.048 576.554 71.712 576.362 74.4H544.49C544.874 79.328 546.154 82.848 548.33 84.96C550.506 87.072 553.386 88.128 556.97 88.128C559.21 88.128 561.322 87.776 563.306 87.072C565.29 86.304 567.402 85.152 569.642 83.616L574.73 90.624C569.098 95.168 562.826 97.44 555.914 97.44C548.17 97.44 542.186 95.072 537.962 90.336C533.802 85.6 531.722 79.136 531.722 70.944C531.722 65.76 532.618 61.12 534.41 57.024C536.202 52.864 538.794 49.632 542.186 47.328C545.578 44.96 549.61 43.776 554.282 43.776C561.386 43.776 566.89 46.048 570.794 50.592C574.698 55.072 576.65 61.344 576.65 69.408ZM564.458 65.856C564.458 56.96 561.162 52.512 554.57 52.512C551.562 52.512 549.194 53.632 547.466 55.872C545.802 58.048 544.81 61.568 544.49 66.432H564.458V65.856ZM34.28 96H20.36L29.672 29.568H43.688L39.944 55.776H61.448L65.192 29.568H79.112L69.8 96H55.88L59.912 66.912H38.408L34.28 96ZM129.911 57.312C129.911 63.776 126.903 68.512 120.887 71.52C114.935 74.464 107.031 76.416 97.175 77.376C97.495 83.968 100.663 87.264 106.679 87.264C108.919 87.264 111.063 86.88 113.111 86.112C115.159 85.344 117.399 84.16 119.831 82.56L124.823 90.816C118.615 95.296 112.023 97.536 105.047 97.536C98.071 97.536 92.727 95.648 89.015 91.872C85.367 88.032 83.543 82.816 83.543 76.224C83.543 71.104 84.503 66.048 86.423 61.056C88.343 56.064 91.415 51.904 95.639 48.576C99.863 45.248 105.239 43.584 111.767 43.584C117.527 43.584 121.975 44.896 125.111 47.52C128.311 50.08 129.911 53.344 129.911 57.312ZM97.847 68.736C104.183 68.224 108.823 67.04 111.767 65.184C114.775 63.264 116.279 60.832 116.279 57.888C116.279 56.544 115.831 55.392 114.935 54.432C114.103 53.472 112.727 52.992 110.807 52.992C107.159 52.992 104.279 54.496 102.167 57.504C100.055 60.512 98.615 64.256 97.847 68.736ZM148.947 83.232L148.852 84.288C148.852 85.824 149.587 86.592 151.06 86.592C151.891 86.592 152.788 86.432 153.747 86.112L155.572 95.712C152.628 96.928 149.62 97.536 146.548 97.536C142.9 97.536 140.083 96.608 138.1 94.752C136.18 92.832 135.219 90.048 135.219 86.4C135.219 85.376 135.316 84.288 135.508 83.136L143.764 24.864L157.299 23.328L148.947 83.232ZM176.604 83.232L176.508 84.288C176.508 85.824 177.244 86.592 178.716 86.592C179.548 86.592 180.444 86.432 181.404 86.112L183.228 95.712C180.284 96.928 177.276 97.536 174.204 97.536C170.556 97.536 167.74 96.608 165.756 94.752C163.836 92.832 162.876 90.048 162.876 86.4C162.876 85.376 162.972 84.288 163.164 83.136L171.42 24.864L184.956 23.328L176.604 83.232ZM210.127 97.536C203.471 97.536 198.319 95.648 194.671 91.872C191.023 88.032 189.199 82.752 189.199 76.032C189.199 70.912 190.127 65.888 191.983 60.96C193.839 55.968 196.847 51.84 201.007 48.576C205.231 45.248 210.607 43.584 217.135 43.584C223.727 43.584 228.847 45.472 232.495 49.248C236.143 53.024 237.967 58.208 237.967 64.8C237.967 69.92 237.071 74.976 235.279 79.968C233.487 84.96 230.511 89.152 226.351 92.544C222.191 95.872 216.783 97.536 210.127 97.536ZM210.991 87.264C215.727 87.264 219.087 84.832 221.071 79.968C223.055 75.104 224.079 69.824 224.143 64.128C224.143 60.544 223.471 57.92 222.127 56.256C220.847 54.592 218.895 53.76 216.271 53.76C212.943 53.76 210.287 55.04 208.303 57.6C206.383 60.096 205.039 63.136 204.271 66.72C203.503 70.24 203.119 73.664 203.119 76.992C203.119 80.512 203.759 83.104 205.039 84.768C206.383 86.432 208.367 87.264 210.991 87.264Z"></path></svg>
